<?xml version="1.0" encoding="UTF-8" standalone="no"?>
<svg width="279mm" height="216mm" viewBox="0 0 279 216" version="1.1" id="svg5" xmlns="http://www.w3.org/2000/svg" xmlns:svg="http://www.w3.org/2000/svg">
<g id="checkers">
<rect width="25" height="25" x="2" y="8"></rect>
<rect width="25" height="25" x="52" y="8"></rect>
<rect width="25" height="25" x="102" y="8"></rect>
<rect width="25" height="25" x="152" y="8"></rect>
<rect width="25" height="25" x="202" y="8"></rect>
<rect width="25" height="25" x="252" y="8"></rect>
<rect width="25" height="25" x="27" y="33"></rect>
<rect width="25" height="25" x="77" y="33"></rect>
<rect width="25" height="25" x="127" y="33"></rect>
<rect width="25" height="25" x="177" y="33"></rect>
<rect width="25" height="25" x="227" y="33"></rect>
<rect width="25" height="25" x="2" y="58"></rect>
<rect width="25" height="25" x="52" y="58"></rect>
<rect width="25" height="25" x="102" y="58"></rect>
<rect width="25" height="25" x="152" y="58"></rect>
<rect width="25" height="25" x="202" y="58"></rect>
<rect width="25" height="25" x="252" y="58"></rect>
<rect width="25" height="25" x="27" y="83"></rect>
<rect width="25" height="25" x="77" y="83"></rect>
<rect width="25" height="25" x="127" y="83"></rect>
<rect width="25" height="25" x="177" y="83"></rect>
<rect width="25" height="25" x="227" y="83"></rect>
<rect width="25" height="25" x="2" y="108"></rect>
<rect width="25" height="25" x="52" y="108"></rect>
<rect width="25" height="25" x="102" y="108"></rect>
<rect width="25" height="25" x="152" y="108"></rect>
<rect width="25" height="25" x="202" y="108"></rect>
<rect width="25" height="25" x="252" y="108"></rect>
<rect width="25" height="25" x="27" y="133"></rect>
<rect width="25" height="25" x="77" y="133"></rect>
<rect width="25" height="25" x="127" y="133"></rect>
<rect width="25" height="25" x="177" y="133"></rect>
<rect width="25" height="25" x="227" y="133"></rect>
<rect width="25" height="25" x="2" y="158"></rect>
<rect width="25" height="25" x="52" y="158"></rect>
<rect width="25" height="25" x="102" y="158"></rect>
<rect width="25" height="25" x="152" y="158"></rect>
<rect width="25" height="25" x="202" y="158"></rect>
<rect width="25" height="25" x="252" y="158"></rect>
<rect width="25" height="25" x="27" y="183"></rect>
<rect width="25" height="25" x="77" y="183"></rect>
<rect width="25" height="25" x="127" y="183"></rect>
<rect width="25" height="25" x="177" y="183"></rect>
<rect width="25" height="25" x="227" y="183"></rect>

</g>
</svg>
